<?xml version="1.0" encoding="UTF-8"?>
<!DOCTYPE svg PUBLIC "-//W3C//DTD SVG 1.1//EN" "http://www.w3.org/Graphics/SVG/1.1/DTD/svg11.dtd">
<!-- Creator: CorelDRAW X7 -->
<svg xmlns="http://www.w3.org/2000/svg" xml:space="preserve" width="10px" height="10px" version="1.1" style="shape-rendering:geometricPrecision; text-rendering:geometricPrecision; image-rendering:optimizeQuality; fill-rule:evenodd; clip-rule:evenodd"
viewBox="0 0 10000 10000"
 xmlns:xlink="http://www.w3.org/1999/xlink">
 <defs>
  <style type="text/css">
   <![CDATA[
    .fil0 {fill:black}
   ]]>
  </style>
 </defs>
 <g id="Layer_x0020_1">
  <metadata id="CorelCorpID_0Corel-Layer"/>
  <path class="fil0" d="M1927 1250l6146 0 0 52 -26 0 0 26 -26 0 0 26 -26 0 0 26 -26 0 0 26 -26 0 0 26 -26 0 0 26 -26 0 0 26 -26 0 0 26 -26 0 0 26 -26 0 0 26 -27 0 0 53 -26 0 0 26 -26 0 0 26 -26 0 0 26 -26 0 0 26 -26 0 0 26 -26 0 0 26 -26 0 0 26 -26 0 0 26 -26 0 0 26 -26 0 0 26 -26 0 0 26 -26 0 0 26 -26 0 0 26 -26 0 0 52 -26 0 0 26 -26 0 0 26 -26 0 0 26 -26 0 0 26 -26 0 0 26 -26 0 0 26 -26 0 0 26 -26 0 0 27 -26 0 0 26 -27 0 0 26 -26 0 0 26 -26 0 0 26 -26 0 0 52 -26 0 0 26 -26 0 0 26 -26 0 0 26 -26 0 0 26 -26 0 0 26 -26 0 0 26 -26 0 0 26 -26 0 0 26 -26 0 0 26 -26 0 0 26 -26 0 0 26 -26 0 0 52 -26 0 0 26 -26 0 0 26 -26 0 0 26 -26 0 0 26 -26 0 0 27 -26 0 0 26 -26 0 0 26 -26 0 0 26 -27 0 0 26 -26 0 0 26 -26 0 0 26 -26 0 0 26 -26 0 0 52 -26 0 0 26 -26 0 0 26 -26 0 0 26 -26 0 0 26 -26 0 0 26 -26 0 0 26 -26 0 0 26 -26 0 0 26 -26 0 0 26 -26 0 0 26 -26 0 0 26 -26 0 0 26 -26 0 0 52 -26 0 0 27 -26 0 0 26 -26 0 0 26 -26 0 0 26 -26 0 0 26 -26 0 0 26 -27 0 0 26 -26 0 0 26 -26 0 0 26 -26 0 0 26 -26 0 0 52 -26 0 0 26 -26 0 0 26 -26 0 0 52 -26 0 0 52 -26 0 0 52 -26 0 0 104 -26 0 0 4323 -52 0 0 -26 -52 0 0 -26 -26 0 0 -26 -52 0 0 -26 -26 0 0 -26 -52 0 0 -26 -26 0 0 -26 -53 0 0 -26 -26 0 0 -26 -52 0 0 -26 -26 0 0 -26 -52 0 0 -26 -26 0 0 -26 -52 0 0 -26 -26 0 0 -26 -52 0 0 -26 -26 0 0 -26 -52 0 0 -26 -26 0 0 -26 -52 0 0 -26 -26 0 0 -26 -52 0 0 -26 -26 0 0 -27 -53 0 0 -26 -26 0 0 -26 -52 0 0 -26 -26 0 0 -26 -52 0 0 -26 -26 0 0 -26 -52 0 0 -26 -26 0 0 -26 -26 0 0 -3516 -26 0 0 -104 -26 0 0 -52 -26 0 0 -52 -26 0 0 -52 -26 0 0 -26 -26 0 0 -26 -26 0 0 -52 -26 0 0 -26 -26 0 0 -26 -26 0 0 -26 -26 0 0 -26 -26 0 0 -26 -27 0 0 -26 -26 0 0 -26 -26 0 0 -26 -26 0 0 -26 -26 0 0 -27 -26 0 0 -26 -26 0 0 -26 -26 0 0 -26 -26 0 0 -52 -26 0 0 -26 -26 0 0 -26 -26 0 0 -26 -26 0 0 -26 -26 0 0 -26 -26 0 0 -26 -26 0 0 -26 -26 0 0 -26 -26 0 0 -26 -26 0 0 -26 -26 0 0 -26 -26 0 0 -52 -26 0 0 -26 -26 0 0 -26 -26 0 0 -26 -27 0 0 -26 -26 0 0 -26 -26 0 0 -27 -26 0 0 -26 -26 0 0 -26 -26 0 0 -26 -26 0 0 -26 -26 0 0 -52 -26 0 0 -26 -26 0 0 -26 -26 0 0 -26 -26 0 0 -26 -26 0 0 -26 -26 0 0 -26 -26 0 0 -26 -26 0 0 -26 -26 0 0 -26 -26 0 0 -26 -26 0 0 -26 -26 0 0 -26 -26 0 0 -52 -26 0 0 -26 -26 0 0 -26 -26 0 0 -26 -27 0 0 -27 -26 0 0 -26 -26 0 0 -26 -26 0 0 -26 -26 0 0 -26 -26 0 0 -26 -26 0 0 -26 -26 0 0 -26 -26 0 0 -26 -26 0 0 -26 -26 0 0 -52 -26 0 0 -26 -26 0 0 -26 -26 0 0 -26 -26 0 0 -26 -26 0 0 -26 -26 0 0 -26 -26 0 0 -26 -26 0 0 -26 -26 0 0 -26 -26 0 0 -26 -26 0 0 -52 -26 0 0 -27 -27 0 0 -26 -26 0 0 -26 -26 0 0 -26 -26 0 0 -26 -26 0 0 -26 -26 0 0 -26 -26 0 0 -26 -26 0 0 -26 -26 0 0 -26 -26 0 0 -26 -26 0 0 -52zm-1510 -313l0 235 26 0 0 156 26 0 0 130 26 0 0 52 26 0 0 52 26 0 0 53 26 0 0 26 26 0 0 26 26 0 0 52 26 0 0 26 26 0 0 26 26 0 0 52 26 0 0 26 26 0 0 26 26 0 0 26 26 0 0 26 26 0 0 26 26 0 0 26 26 0 0 26 26 0 0 26 26 0 0 26 27 0 0 26 26 0 0 26 26 0 0 26 26 0 0 52 26 0 0 27 26 0 0 26 26 0 0 26 26 0 0 26 26 0 0 26 26 0 0 26 26 0 0 26 26 0 0 26 26 0 0 26 26 0 0 26 26 0 0 26 26 0 0 26 26 0 0 26 26 0 0 26 26 0 0 52 26 0 0 26 26 0 0 26 26 0 0 26 26 0 0 26 26 0 0 26 27 0 0 26 26 0 0 26 26 0 0 26 26 0 0 27 26 0 0 26 26 0 0 26 26 0 0 52 26 0 0 26 26 0 0 26 26 0 0 26 26 0 0 26 26 0 0 26 26 0 0 26 26 0 0 26 26 0 0 26 26 0 0 26 26 0 0 26 26 0 0 26 26 0 0 26 26 0 0 26 26 0 0 26 26 0 0 52 26 0 0 26 26 0 0 26 27 0 0 26 26 0 0 27 26 0 0 26 26 0 0 26 26 0 0 26 26 0 0 26 26 0 0 26 26 0 0 26 26 0 0 26 26 0 0 26 26 0 0 52 26 0 0 26 26 0 0 26 26 0 0 26 26 0 0 26 26 0 0 26 26 0 0 26 26 0 0 26 26 0 0 26 26 0 0 26 26 0 0 26 26 0 0 52 26 0 0 26 27 0 0 27 26 0 0 26 26 0 0 26 26 0 0 26 26 0 0 26 26 0 0 26 26 0 0 26 26 0 0 26 26 0 0 26 26 0 0 26 26 0 0 26 26 0 0 26 26 0 0 3464 26 0 0 78 26 0 0 130 26 0 0 52 26 0 0 52 26 0 0 52 26 0 0 52 26 0 0 26 26 0 0 52 26 0 0 26 26 0 0 26 26 0 0 26 27 0 0 27 26 0 0 26 26 0 0 26 26 0 0 26 26 0 0 26 52 0 0 26 52 0 0 26 26 0 0 52 52 0 0 26 52 0 0 26 26 0 0 26 52 0 0 26 52 0 0 26 26 0 0 26 52 0 0 26 26 0 0 26 53 0 0 26 26 0 0 26 52 0 0 26 26 0 0 26 52 0 0 26 26 0 0 26 52 0 0 26 26 0 0 26 52 0 0 27 26 0 0 26 52 0 0 26 26 0 0 26 52 0 0 26 26 0 0 26 52 0 0 26 26 0 0 26 53 0 0 26 52 0 0 26 26 0 0 26 52 0 0 26 52 0 0 52 52 0 0 26 52 0 0 26 26 0 0 26 52 0 0 26 26 0 0 26 52 0 0 26 26 0 0 26 52 0 0 26 26 0 0 26 52 0 0 26 27 0 0 27 52 0 0 26 26 0 0 26 52 0 0 26 26 0 0 26 52 0 0 26 26 0 0 26 78 0 0 52 104 0 0 26 78 0 0 26 104 0 0 26 287 0 0 -26 104 0 0 -26 78 0 0 -52 52 0 0 -26 52 0 0 -26 52 0 0 -26 27 0 0 -26 26 0 0 -26 26 0 0 -26 26 0 0 -26 26 0 0 -27 26 0 0 -26 26 0 0 -26 26 0 0 -52 26 0 0 -52 26 0 0 -52 26 0 0 -104 26 0 0 -78 26 0 0 -4922 26 0 0 -26 26 0 0 -26 26 0 0 -26 26 0 0 -26 26 0 0 -26 26 0 0 -26 26 0 0 -26 26 0 0 -26 26 0 0 -26 26 0 0 -26 26 0 0 -26 27 0 0 -53 26 0 0 -26 26 0 0 -26 26 0 0 -26 26 0 0 -26 26 0 0 -26 26 0 0 -26 26 0 0 -26 26 0 0 -26 26 0 0 -26 26 0 0 -26 26 0 0 -26 26 0 0 -26 26 0 0 -52 26 0 0 -26 26 0 0 -26 26 0 0 -26 26 0 0 -26 26 0 0 -26 26 0 0 -26 26 0 0 -26 26 0 0 -26 26 0 0 -27 26 0 0 -26 27 0 0 -26 26 0 0 -26 26 0 0 -26 26 0 0 -26 26 0 0 -52 26 0 0 -26 26 0 0 -26 26 0 0 -26 26 0 0 -26 26 0 0 -26 26 0 0 -26 26 0 0 -26 26 0 0 -26 26 0 0 -26 26 0 0 -26 26 0 0 -26 26 0 0 -26 26 0 0 -26 26 0 0 -52 26 0 0 -26 26 0 0 -27 26 0 0 -26 26 0 0 -26 27 0 0 -26 26 0 0 -26 26 0 0 -26 26 0 0 -26 26 0 0 -26 26 0 0 -26 26 0 0 -26 26 0 0 -26 26 0 0 -26 26 0 0 -52 26 0 0 -26 26 0 0 -26 26 0 0 -26 26 0 0 -26 26 0 0 -26 26 0 0 -26 26 0 0 -26 26 0 0 -26 26 0 0 -26 26 0 0 -26 26 0 0 -27 26 0 0 -52 26 0 0 -26 26 0 0 -26 26 0 0 -26 27 0 0 -26 26 0 0 -26 26 0 0 -26 26 0 0 -26 26 0 0 -26 26 0 0 -26 26 0 0 -26 26 0 0 -26 26 0 0 -26 26 0 0 -26 26 0 0 -52 26 0 0 -26 26 0 0 -52 26 0 0 -26 26 0 0 -52 26 0 0 -53 26 0 0 -52 26 0 0 -52 26 0 0 -78 26 0 0 -52 26 0 0 -495 -26 0 0 -78 -26 0 0 -78 -52 0 0 -52 -26 0 0 -52 -26 0 0 -52 -26 0 0 -52 -26 0 0 -26 -26 0 0 -26 -26 0 0 -26 -26 0 0 -53 -52 0 0 -26 -26 0 0 -26 -26 0 0 -26 -26 0 0 -26 -52 0 0 -26 -26 0 0 -26 -53 0 0 -26 -52 0 0 -52 -104 0 0 -26 -78 0 0 -26 -156 0 0 -26 -7292 0 0 26 -130 0 0 26 -78 0 0 26 -130 0 0 26 -52 0 0 52 -53 0 0 26 -52 0 0 26 -26 0 0 26 -26 0 0 26 -26 0 0 26 -52 0 0 26 -26 0 0 53 -26 0 0 26 -26 0 0 26 -26 0 0 26 -26 0 0 26 -26 0 0 78 -26 0 0 26 -26 0 0 78 -26 0 0 26 -26 0 0 78 -26 0 0 182 -26 0z"/>
 </g>
</svg>
