<svg xmlns="http://www.w3.org/2000/svg" xml:space="preserve" width="20px" height="10px" version="1.1" style="shape-rendering:geometricPrecision; text-rendering:geometricPrecision; image-rendering:optimizeQuality; fill-rule:evenodd; clip-rule:evenodd" viewBox="0 0 20000 10000"  xmlns:xlink="http://www.w3.org/1999/xlink">
  <polygon id="DropDown" fill="black" points="17765,3607 14985,6387 12205,3607 "/>
  <path id="Clock" fill="black" d="M1465 1465l-664 -664c-295,-295 -801,-86 -801,330l0 2150c0,260 209,469 469,469l2150 0c418,0 627,-506 332,-801l-601 -601c677,-678 1615,-1098 2650,-1098 2070,0 3750,1680 3750,3750 0,2070 -1680,3750 -3750,3750 -797,0 -1535,-248 -2143,-672 -283,-197 -671,-129 -871,154 -199,284 -129,672 155,872 812,564 1798,896 2859,896 2762,0 5000,-2238 5000,-5000 0,-2762 -2238,-5000 -5000,-5000 -1381,0 -2631,561 -3535,1465zm3535 1035c-260,0 -469,209 -469,469l0 2031c0,125 49,244 137,332l1406 1406c184,184 481,184 662,0 182,-183 184,-480 0,-662l-1269 -1269 0 -1838c0,-260 -209,-469 -469,-469l2 0z"/>
</svg>
