<svg xmlns="http://www.w3.org/2000/svg" xml:space="preserve" width="20px" height="10px" version="1.1" style="shape-rendering:geometricPrecision; text-rendering:geometricPrecision; image-rendering:optimizeQuality; fill-rule:evenodd; clip-rule:evenodd"
viewBox="0 0 20000 10000"
 xmlns:xlink="http://www.w3.org/1999/xlink">
 <defs>
  <style type="text/css">
   <![CDATA[
    .fil0 {fill:black}
    .fil1 {fill:black;fill-rule:nonzero}
   ]]>
  </style>
 </defs>
 <g id="Layer_x0020_1">
  <metadata id="CorelCorpID_0Corel-Layer"/>
  <polygon id="DropDown" class="fil0" points="17839,3438 15000,6562 12188,3438 " inkscape:connector-curvature="0" sodipodi:nodetypes="cccc"/>
  <path class="fil1" d="M2149 9105c-283,-197 -353,-586 -156,-870 196,-283 586,-353 869,-156 633,440 1367,664 2101,671 736,7 1475,-203 2118,-631 639,-425 1116,-1025 1393,-1708 277,-683 354,-1447 193,-2200 -161,-752 -544,-1417 -1076,-1924 -533,-509 -1215,-861 -1975,-988 -759,-126 -1518,-14 -2187,294 -388,179 -745,424 -1054,726l603 603c143,143 183,346 106,532 -78,186 -250,301 -451,301l-2086 0c-269,0 -488,-219 -488,-488l0 -2087c0,-202 115,-374 301,-451 187,-78 390,-37 532,106l602 602c414,-408 893,-737 1413,-977 891,-411 1903,-560 2914,-391 1012,168 1920,637 2630,1314 710,679 1221,1566 1437,2569 214,1002 112,2020 -257,2928 -369,909 -1007,1710 -1862,2280 -851,567 -1835,845 -2816,836 -984,-10 -1963,-307 -2804,-891z"/>
  <path class="fil1" d="M6434 5771c183,183 183,480 0,663 -183,183 -480,183 -663,0l-1100 -1101c-12,-11 -24,-24 -34,-37l-2 -1 -5 -8 -2 -2 -5 -7 -2 -3 -5 -6 -2 -4 -5 -6 -1 -3 -5 -6 -2 -4 -3 -6 -3 -4 -3 -6 -2 -4 -4 -7 -1 -2 -5 -8 -1 -2 -4 -8 -1 -2c-27,-60 -43,-127 -43,-197l0 -2186c0,-259 210,-469 469,-469 259,0 469,210 469,469l0 1992 965 965z"/>
 </g>
</svg>
